<svg version="1.2" xmlns="http://www.w3.org/2000/svg" viewBox="0 0 842 842" width="842" height="842" fill="currentColor">
	<style>
		.s0 { fill: #294356;stroke: #294356;stroke-linecap: round;stroke-linejoin: round;stroke-width: 5 } 
		.s1 { fill: #ffe48d;stroke: #294356;stroke-linecap: round;stroke-linejoin: round;stroke-width: 5 } 
		.s2 { fill: #ffffff;stroke: #284356;stroke-linecap: round;stroke-linejoin: round;stroke-width: 5 } 
		.s3 { fill: #294356 } 
		.s4 { fill: none;stroke: #294356;stroke-linecap: round;stroke-linejoin: round;stroke-width: 5 } 
		.s5 { fill: #ffffff } 
		.s6 { fill: none;stroke: #284356;stroke-linecap: round;stroke-linejoin: round;stroke-width: 5 } 
		.s7 { fill: #d1d3d4 } 
		.s8 { fill: #dddddd } 
		.s9 { fill: #ffffff;stroke: #35495e;stroke-linecap: round;stroke-linejoin: round;stroke-width: 5 } 
		.s10 { fill: #8edddd } 
		.s11 { fill: #65c0c3 } 
		.s12 { fill: none;stroke: #35495e;stroke-linecap: round;stroke-linejoin: round;stroke-width: 5 } 
		.s13 { fill: #87a532 } 
		.s14 { fill: #d34f4f } 
		.s15 { fill: #ffffff;stroke: #274952;stroke-linecap: round;stroke-linejoin: round;stroke-width: 5 } 
		.s16 { fill: #f77e53 } 
		.s17 { fill: #e2e8e8 } 
		.s18 { fill: #92a4ad;stroke: #284356;stroke-linecap: round;stroke-linejoin: round;stroke-width: 5 } 
		.s19 { fill: #65c0c3;stroke: #284356;stroke-linecap: round;stroke-linejoin: round;stroke-width: 5 } 
		.s20 { fill: #589cab;stroke: #284356;stroke-linecap: round;stroke-linejoin: round;stroke-width: 5 } 
		.s21 { fill: none;stroke: #d8dbd7;stroke-linecap: round;stroke-linejoin: round;stroke-width: 5 } 
		.s22 { fill: none;stroke: #f77e53;stroke-linecap: round;stroke-linejoin: round;stroke-width: 5 } 
		.s23 { fill: none;stroke: #284356;stroke-miterlimit:10;stroke-width: 5 } 
	</style>
	<g id="_Artboards_">
	</g>
	<g id="Layer 1">
		<g id="&lt;Group&gt;">
			<g id="&lt;Group&gt;">
				<path id="&lt;Path&gt;" class="s0" d="m486.9 739.4c0 11.1-9 20.2-20.1 20.2-11.2 0-20.2-9.1-20.2-20.2 0-11.1 9-20.1 20.2-20.1 11.1 0 20.1 9 20.1 20.1z"/>
				<path id="&lt;Path&gt;" class="s0" d="m385.2 739.4c0 11.1-9 20.2-20.2 20.2-11.1 0-20.1-9.1-20.1-20.2 0-11.1 9-20.1 20.1-20.1 11.2 0 20.2 9 20.2 20.1z"/>
				<g id="&lt;Group&gt;">
					<g id="&lt;Group&gt;">
						<path id="&lt;Path&gt;" class="s0" d="m387.1 593.6l-13.6 6.3-13.4-28.8 13.5-6.4z"/>
						<path id="&lt;Path&gt;" class="s1" d="m408 556.9c-10-21.4-35.4-30.7-56.8-20.7-21.4 9.9-30.6 35.4-20.7 56.7z"/>
					</g>
					<g id="&lt;Group&gt;">
						<path id="&lt;Path&gt;" class="s0" d="m449.9 594.9l13.5 6.5 13.9-28.7-13.5-6.5z"/>
						<path id="&lt;Path&gt;" class="s1" d="m429.6 557.8c10.3-21.3 35.9-30.1 57.1-19.8 21.3 10.3 30.1 35.9 19.8 57.1z"/>
					</g>
					<g id="&lt;Group&gt;">
						<path id="&lt;Path&gt;" class="s1" d="m510.8 665.9c0 51.7-42 93.7-93.7 93.7-51.7 0-93.6-42-93.6-93.7 0-51.7 41.9-93.7 93.6-93.7 51.7 0 93.7 42 93.7 93.7z"/>
						<path id="&lt;Path&gt;" class="s2" d="m490.8 665.9c0 40.7-33 73.7-73.7 73.7-40.7 0-73.7-33-73.7-73.7 0-40.7 33-73.7 73.7-73.7 40.7 0 73.7 33 73.7 73.7z"/>
						<path id="&lt;Path&gt;" class="s3" d="m426.2 665.9c0 5-4.1 9.1-9.1 9.1-5 0-9.1-4.1-9.1-9.1 0-5 4.1-9.1 9.1-9.1 5 0 9.1 4.1 9.1 9.1z"/>
						<path id="&lt;Path&gt;" class="s3" d="m421.3 663.9c0 2.3-1.9 4.1-4.2 4.1-2.3 0-4.1-1.8-4.1-4.1v-30c0-2.3 1.8-4.2 4.1-4.2 2.3 0 4.2 1.9 4.2 4.2z"/>
						<path id="&lt;Path&gt;" class="s3" d="m462.4 665.7c0 1.3-1 2.3-2.3 2.3h-44.8c-1.3 0-2.3-1-2.3-2.3 0-1.3 1-2.4 2.3-2.4h44.8c1.3 0 2.3 1.1 2.3 2.4z"/>
						<path id="&lt;Path&gt;" class="s3" d="m421.3 604.2c0 2.3-1.9 4.2-4.2 4.2-2.3 0-4.1-1.9-4.1-4.2v-3.6c0-2.3 1.8-4.1 4.1-4.1 2.3 0 4.2 1.8 4.2 4.1z"/>
						<path id="&lt;Path&gt;" class="s3" d="m421.3 732c0 2.3-1.9 4.2-4.2 4.2-2.3 0-4.1-1.9-4.1-4.2v-3.6c0-2.3 1.8-4.1 4.1-4.1 2.3 0 4.2 1.8 4.2 4.1z"/>
						<path id="&lt;Path&gt;" class="s3" d="m355 662.2c2.3 0 4.2 1.8 4.2 4.1 0 2.3-1.9 4.2-4.2 4.2h-3.6c-2.3 0-4.2-1.9-4.2-4.2 0-2.3 1.9-4.1 4.2-4.1z"/>
						<path id="&lt;Path&gt;" class="s3" d="m482.8 662.2c2.3 0 4.2 1.8 4.2 4.1 0 2.3-1.9 4.2-4.2 4.2h-3.6c-2.3 0-4.2-1.9-4.2-4.2 0-2.3 1.9-4.1 4.2-4.1z"/>
					</g>
				</g>
			</g>
			<g id="&lt;Group&gt;">
				<path id="&lt;Path&gt;" class="s4" d="m444.2 525.6c0 0-19.1-25.2-45.6-1.8"/>
				<path id="&lt;Path&gt;" class="s4" d="m429.6 536.6c-4.3-2.9-11.1-2.9-15.6-0.4"/>
				<path id="&lt;Path&gt;" class="s4" d="m464.5 513.3c0 0-34.9-47.5-86.8-2.7"/>
			</g>
		</g>
		<g id="&lt;Group&gt;">
			<g id="&lt;Group&gt;">
				<path id="&lt;Path&gt;" class="s5" d="m552.9 364.2l101.3-21.2 24.6 13.7 31.6 150.8-122.1 25.7z"/>
				<path id="&lt;Path&gt;" class="s6" d="m552.9 364.2l101.3-21.2 24.6 13.7 31.6 150.8-122.1 25.7z"/>
			</g>
			<g id="&lt;Group&gt;">
				<path id="&lt;Path&gt;" class="s6" d="m675 474.5l-67.5 14.2"/>
			</g>
			<g id="&lt;Group&gt;">
				<path id="&lt;Path&gt;" class="s6" d="m670.7 454.1l-67.5 14.1"/>
			</g>
			<g id="&lt;Group&gt;">
				<path id="&lt;Path&gt;" class="s6" d="m666.4 433.6l-67.5 14.2"/>
			</g>
			<g id="&lt;Group&gt;">
				<path id="&lt;Path&gt;" class="s6" d="m662.1 413.1l-67.5 14.2"/>
			</g>
			<g id="&lt;Group&gt;">
				<path id="&lt;Path&gt;" class="s6" d="m657.9 392.7l-67.6 14.2"/>
			</g>
			<path id="&lt;Path&gt;" class="s7" d="m657.3 363l19.5-4.1-23.1-12.8z"/>
		</g>
		<g id="&lt;Group&gt;">
			<path id="&lt;Path&gt;" class="s1" d="m174.8 540.5c-3.8-4.5-10.6-4.8-14.8-0.6l-40.4 40.5c-2.8-2.7-7.3-2.7-10 0l-19.6 19.7c-2.8 2.7-2.7 7.2 0 10l-3.5 3.5c-4.2 4.2-3.8 11 0.7 14.7l55.6 54.9c4.4 4.2 11.4 4.1 15.7-0.2 4.2-4.3 4.2-11.2-0.1-15.5l-4.5-4.5 71.5-71.8z"/>
			<path id="&lt;Path&gt;" class="s1" d="m124.4 621.4c-3.4 3.4-3.4 8.8 0 12.2l34 33.9c4.3 4.3 4.3 11.2 0.1 15.5l76.2-76.5c5-5 5-13.1 0-18.1l-32.7-32.6c-3.4-3.4-8.8-3.4-12.1 0z"/>
		</g>
		<g id="&lt;Group&gt;">
			<path id="&lt;Path&gt;" class="s5" d="m681.7 268.1l-70.5 29.8c-4.1 1.7-9-0.2-10.7-4.4l-54.4-128.9c-1.8-4.2 0.2-9 4.3-10.8l91.7-38.7c4.2-1.7 9 0.2 10.8 4.4l45.5 107.8z"/>
			<path id="&lt;Path&gt;" class="s8" d="m681.8 267.9l-9.3-22c-1.5-3.6 0.2-7.8 3.8-9.3l22.1-9.3z"/>
			<path id="&lt;Path&gt;" class="s9" d="m616.9 158.6l14.7-6.2"/>
			<path id="&lt;Path&gt;" class="s9" d="m611.7 146.5l30.4-12.9"/>
			<path id="&lt;Path&gt;" class="s10" d="m619.2 186.4l-40.8 17.2-16-38 40.8-17.2z"/>
			<path id="&lt;Path&gt;" class="s10" d="m676.4 212.5l-32 13.5-13.4-31.8 32-13.5z"/>
			<path id="&lt;Path&gt;" class="s11" d="m598.5 183.8l-1.1-2.6c0.5-1.2 0.8-3 0.4-5.3 0 0.1-0.1-0.3-0.1-0.2 2.6-0.8 1.1-9.1-1.1-7.1q-0.2-1.4-0.5-3.4c0-0.3 0.2 0.4 0.5 0.8 0.6-4.8-4.3-7.2-7-6.4-2-1-4.5-1.1-7.7 1-2.9 1.9-5.3 4.3-4.3 8.6 0.3-0.6 0.7-1 1.1-1.7-0.6 2-0.2 3.8 2.2 7.2-2.8 0.7 1.8 7.1 4.2 6.1 1.2 1.5 2.8 2.9 5.1 3.4 0 0 0.7 1.6 1.1 2.7 0.2 0.5-4.1 2.4-5.3 3.3-2.2 1.6-3.6 3.9-3.1 6.2 0.2 1.1 1.9 4.4 1.9 4.4l28.3-11.9c0 0-1.1-3.6-1.9-4.5-2.2-2.6-4.3-2.4-5.9-2.3-1.6 0.1-6.5 2.3-6.8 1.7z"/>
			<path id="&lt;Path&gt;" class="s9" d="m595.8 241l38.5-16.2"/>
			<path id="&lt;Path&gt;" class="s9" d="m601.2 253.8l77.8-32.8"/>
			<path id="&lt;Path&gt;" class="s9" d="m590.4 228.3l38.5-16.2"/>
			<path id="&lt;Path&gt;" class="s9" d="m585 215.6l38.5-16.3"/>
			<path id="&lt;Path&gt;" class="s12" d="m681.7 268.1l-70.5 29.8c-4.1 1.7-9-0.2-10.7-4.4l-54.4-128.9c-1.8-4.2 0.2-9 4.3-10.8l91.7-38.7c4.2-1.7 9 0.2 10.8 4.4l45.5 107.8z"/>
		</g>
		<g id="&lt;Group&gt;">
			<path id="&lt;Path&gt;" class="s2" d="m314.2 274.8l-116.6 8.8-11.1-145.4 116.6-8.9z"/>
			<path id="&lt;Path&gt;" class="s13" d="m218.9 244.9l13.5-1.1-2.1-28.2-13.5 1z"/>
			<path id="&lt;Path&gt;" class="s14" d="m239.9 243.3l13.5-1.1-1.5-20.7-13.6 1z"/>
			<path id="&lt;Path&gt;" class="s13" d="m260.9 241.6l13.5-1-2.4-32-13.5 1z"/>
			<path id="&lt;Path&gt;" class="s14" d="m282 240l13.5-1-3.3-43.3-13.6 1z"/>
			<path id="&lt;Path&gt;" class="s6" d="m203.9 166l6.7 88.3 83.2-6.3"/>
			<path id="&lt;Path&gt;" class="s6" d="m215.9 204.3l27-19.2 11.7 12.8 17.4-19.8"/>
			<path id="&lt;Path&gt;" class="s14" d="m265.7 171.2l13.6 11.5 4.4-18.5z"/>
		</g>
		<g id="&lt;Group&gt;">
			<path id="&lt;Path&gt;" class="s15" d="m450.9 270c-4.3 5.8-12.6 7-18.5 2.7l-78.9-58.7c-2.8-2-3.4-5.9-1.3-8.7l83.8-112.8c2.1-2.8 6-3.4 8.8-1.3l78.9 58.6c5.9 4.4 7.1 12.7 2.7 18.5z"/>
			<g id="&lt;Group&gt;">
				<g id="&lt;Group&gt;">
					<g id="&lt;Group&gt;">
						<path id="&lt;Path&gt;" class="s16" d="m362.7 210.2c-0.4 0.6-1.3 0.7-1.9 0.3l-16-11.9c-0.7-0.5-0.8-1.4-0.3-2l1.7-2.3c0.4-0.6 1.3-0.7 1.9-0.3l16 11.9c0.7 0.5 0.8 1.4 0.3 2z"/>
					</g>
				</g>
				<g id="&lt;Group&gt;">
					<g id="&lt;Group&gt;">
						<path id="&lt;Path&gt;" class="s16" d="m372.7 196.8c-0.5 0.6-1.4 0.7-2 0.3l-16-11.9c-0.6-0.5-0.7-1.4-0.3-2l1.7-2.3c0.5-0.6 1.4-0.7 2-0.3l16 11.9c0.6 0.5 0.7 1.4 0.3 2z"/>
					</g>
				</g>
				<g id="&lt;Group&gt;">
					<g id="&lt;Group&gt;">
						<path id="&lt;Path&gt;" class="s16" d="m382.6 183.4c-0.4 0.6-1.3 0.7-1.9 0.3l-16-11.9c-0.6-0.5-0.8-1.4-0.3-2l1.7-2.3c0.5-0.6 1.3-0.7 1.9-0.3l16.1 11.9c0.6 0.5 0.7 1.3 0.2 2z"/>
					</g>
				</g>
				<g id="&lt;Group&gt;">
					<g id="&lt;Group&gt;">
						<path id="&lt;Path&gt;" class="s16" d="m392.6 170c-0.5 0.6-1.4 0.7-2 0.3l-16-11.9c-0.6-0.5-0.7-1.4-0.3-2l1.8-2.3c0.4-0.6 1.3-0.7 1.9-0.3l16 11.9c0.6 0.5 0.8 1.3 0.3 2z"/>
					</g>
				</g>
				<g id="&lt;Group&gt;">
					<g id="&lt;Group&gt;">
						<path id="&lt;Path&gt;" class="s16" d="m402.5 156.6c-0.4 0.6-1.3 0.7-1.9 0.3l-16-11.9c-0.6-0.5-0.8-1.4-0.3-2l1.7-2.3c0.5-0.6 1.3-0.7 2-0.3l16 11.9c0.6 0.5 0.7 1.3 0.3 2z"/>
					</g>
				</g>
				<g id="&lt;Group&gt;">
					<g id="&lt;Group&gt;">
						<path id="&lt;Path&gt;" class="s16" d="m412.5 143.2c-0.5 0.6-1.3 0.7-2 0.3l-16-11.9c-0.6-0.5-0.7-1.4-0.3-2l1.8-2.3c0.4-0.6 1.3-0.7 1.9-0.3l16 11.9c0.6 0.5 0.8 1.3 0.3 2z"/>
					</g>
				</g>
				<g id="&lt;Group&gt;">
					<g id="&lt;Group&gt;">
						<path id="&lt;Path&gt;" class="s16" d="m422.5 129.8c-0.5 0.6-1.4 0.7-2 0.3l-16-11.9c-0.6-0.5-0.8-1.4-0.3-2l1.7-2.3c0.5-0.6 1.4-0.7 2-0.3l16 11.9c0.6 0.5 0.7 1.3 0.3 2z"/>
					</g>
				</g>
				<g id="&lt;Group&gt;">
					<g id="&lt;Group&gt;">
						<path id="&lt;Path&gt;" class="s16" d="m432.4 116.4c-0.4 0.6-1.3 0.7-1.9 0.3l-16-11.9c-0.7-0.5-0.8-1.4-0.3-2l1.7-2.3c0.4-0.6 1.3-0.7 1.9-0.3l16 11.9c0.7 0.5 0.8 1.3 0.3 2z"/>
					</g>
				</g>
				<g id="&lt;Group&gt;">
					<g id="&lt;Group&gt;">
						<path id="&lt;Path&gt;" class="s16" d="m442.4 103c-0.5 0.6-1.4 0.7-2 0.3l-16-11.9c-0.6-0.5-0.8-1.3-0.3-2l1.7-2.3c0.5-0.6 1.4-0.7 2-0.3l16 11.9c0.6 0.5 0.7 1.4 0.3 2z"/>
					</g>
				</g>
			</g>
			<g id="&lt;Group&gt;">
				<path id="&lt;Path&gt;" class="s16" d="m485.5 196.6l-63.9-47.5 27-36.3 63.9 47.5z"/>
			</g>
		</g>
		<g id="&lt;Group&gt;">
			<path id="&lt;Path&gt;" class="s5" d="m373.2 467.2h114.7c7.2 0 13.1-5.8 13.1-13.1v-97.8h-140.9v97.8c0 7.3 5.9 13.1 13.1 13.1z"/>
			<g id="&lt;Group&gt;">
				<path id="&lt;Path&gt;" class="s16" d="m501 339.4c0-7.2-5.9-13.1-13.1-13.1h-114.7c-7.2 0-13.1 5.9-13.1 13.1v16.9h140.9z"/>
				<path id="&lt;Path&gt;" class="s4" d="m501 339.4c0-7.2-5.9-13.1-13.1-13.1h-114.7c-7.2 0-13.1 5.9-13.1 13.1v16.9h140.9z"/>
			</g>
			<path id="&lt;Path&gt;" class="s17" d="m489 467.2c6.6 0 12-5.3 12-12v-23.3l-35.3 35.3z"/>
			<path id="&lt;Path&gt;" class="s18" d="m480.3 431.7c-8.4 0-15.1 6.7-15.1 15v20.5h0.5l35.3-35.3v-0.2z"/>
			<path id="&lt;Path&gt;" class="s18" d="m458.1 334.7c0 3.3 2.7 6 6.1 6 3.3 0 6-2.7 6-6v-18.3c0-3.3-2.7-6.1-6-6.1-3.4 0-6.1 2.8-6.1 6.1z"/>
			<path id="&lt;Path&gt;" class="s18" d="m424.5 334.7c0 3.3 2.7 6 6.1 6 3.3 0 6-2.7 6-6v-18.3c0-3.3-2.7-6.1-6-6.1-3.4 0-6.1 2.8-6.1 6.1z"/>
			<path id="&lt;Path&gt;" class="s18" d="m390.9 334.7c0 3.3 2.7 6 6 6 3.4 0 6.1-2.7 6.1-6v-18.3c0-3.3-2.7-6.1-6.1-6.1-3.3 0-6 2.8-6 6.1z"/>
			<path id="&lt;Compound Path&gt;" class="s6" d="m391.2 388.6h-19.3v-19.3h19.3z"/>
			<path id="&lt;Compound Path&gt;" class="s6" d="m424.6 388.6h-19.3v-19.3h19.3z"/>
			<path id="&lt;Compound Path&gt;" class="s6" d="m457.9 388.6h-19.3v-19.3h19.3z"/>
			<path id="&lt;Compound Path&gt;" class="s6" d="m491.3 388.6h-19.3v-19.3h19.3z"/>
			<path id="&lt;Compound Path&gt;" class="s6" d="m391.2 436.1v19.3h-19.3v-19.3z"/>
			<path id="&lt;Compound Path&gt;" class="s6" d="m391.2 402.7v19.3h-19.3v-19.3z"/>
			<path id="&lt;Compound Path&gt;" class="s6" d="m424.6 436.1v19.3h-19.3v-19.3z"/>
			<path id="&lt;Compound Path&gt;" class="s6" d="m424.6 402.7v19.3h-19.3v-19.3z"/>
			<path id="&lt;Compound Path&gt;" class="s6" d="m457.9 436.1v19.3h-19.3v-19.3z"/>
			<path id="&lt;Compound Path&gt;" class="s6" d="m457.9 402.7v19.3h-19.3v-19.3z"/>
			<path id="&lt;Compound Path&gt;" class="s6" d="m491.3 402.7v19.3h-19.3v-19.3z"/>
			<path id="&lt;Path&gt;" class="s6" d="m373.2 467.2h114.7c7.2 0 13.1-5.8 13.1-13.1v-97.8h-140.9v97.8c0 7.3 5.9 13.1 13.1 13.1z"/>
			<path id="&lt;Path&gt;" class="s16" d="m414.4 417.9c-1.1 0-2.1-0.5-2.6-1.5l-7.2-12.7c-0.8-1.4-0.3-3.2 1.1-4 1.5-0.8 3.3-0.3 4.1 1.1l4.5 8.1 7.3-13.6c0.8-1.4 2.5-2 4-1.2 1.4 0.8 1.9 2.6 1.2 4l-9.8 18.3c-0.5 0.9-1.5 1.5-2.6 1.5q0 0 0 0z"/>
		</g>
		<g id="&lt;Group&gt;">
			<g id="&lt;Group&gt;">
				<path id="&lt;Path&gt;" class="s5" d="m677.6 676.2c-5 2.4-11.1 0.2-13.5-4.8l-40-85.2c-2.3-5-0.2-11.1 4.9-13.4l57.1-26.9 48.6 103.5z"/>
				<path id="&lt;Path&gt;" class="s6" d="m677.6 676.2c-5 2.4-11.1 0.2-13.5-4.8l-40-85.2c-2.3-5-0.2-11.1 4.9-13.4l57.1-26.9 48.6 103.5z"/>
			</g>
			<g id="&lt;Group&gt;">
				<path id="&lt;Path&gt;" class="s19" d="m669.7 625.7c-5.9-2.2-8.9-8.7-6.8-14.5l23.2-65.3-57.1 26.9c-5.1 2.3-7.2 8.4-4.9 13.4l40 85.2c2.4 5 8.5 7.2 13.5 4.8l57.1-26.8z"/>
			</g>
		</g>
		<g id="&lt;Group&gt;">
			<path id="&lt;Path&gt;" class="s20" d="m312.6 372.3l-104.8-45.9c-4.3-1.9-9.3 0.1-11.2 4.4l-62.8 143.4c-1.9 4.3 0.1 9.3 4.4 11.2l104.8 45.9c4.3 1.9 9.3-0.1 11.1-4.4l62.9-143.4c1.9-4.3-0.1-9.3-4.4-11.2z"/>
			<path id="&lt;Path&gt;" class="s5" d="m150.5 465.1l53.9-123.1 99.1 43.4-53.9 123.1z"/>
			<path id="&lt;Path&gt;" class="s2" d="m262 362.3c1.5-3.4-0.1-7.4-3.5-8.9-3.5-1.5-7.5 0-9 3.4l-15.1-6.6c-1.4-0.6-2.9 0-3.5 1.4l-0.9 2.1c-1 2.2 0 4.9 2.2 5.8l39.5 17.3c2.2 1 4.9 0 5.8-2.3l1-2.1c0.6-1.3 0-2.9-1.4-3.5z"/>
			<path id="&lt;Path&gt;" class="s21" d="m229.3 375.2l55.9 24.5"/>
			<path id="&lt;Path&gt;" class="s21" d="m225 385.2l46.7 20.5"/>
			<path id="&lt;Path&gt;" class="s21" d="m220.6 395.2l55.8 24.5"/>
			<path id="&lt;Path&gt;" class="s21" d="m215 407.9l33.9 14.9"/>
			<path id="&lt;Path&gt;" class="s21" d="m210.6 418l55.9 24.4"/>
			<path id="&lt;Compound Path&gt;" class="s2" d="m190.6 397.3l-7.1 16 16.1 7 7-16z"/>
			<path id="&lt;Path&gt;" class="s22" d="m190.8 406.4l2.6 6.1 13.1-5"/>
			<path id="&lt;Compound Path&gt;" class="s2" d="m175.9 430.8l-7 16 16 7 7-16z"/>
			<path id="&lt;Path&gt;" class="s22" d="m176.1 439.9l2.7 6.1 13-5"/>
			<path id="&lt;Path&gt;" class="s21" d="m200 442.2l49.2 21.6"/>
			<path id="&lt;Path&gt;" class="s21" d="m195.6 452.2l43.3 19"/>
			<path id="&lt;Compound Path&gt;" class="s2" d="m205.2 363.7l-7 16.1 16.1 7 7-16z"/>
			<path id="&lt;Path&gt;" class="s22" d="m205.4 372.9l2.7 6.1 13.1-5"/>
		</g>
		<path id="&lt;Path&gt;" class="s4" d="m118.2 759.6h591.1"/>
		<g id="&lt;Group&gt;">
			<g id="&lt;Group&gt;">
				<path id="&lt;Compound Path&gt;" fill-rule="evenodd" class="s23" d="m100.9 308.6l5.1-0.6c0.4-4 1.7-7.7 3.7-10.9l-3.6-3.6c-1.8-1.7-1.8-4.5-0.1-6.2l3.1-3.2c1.7-1.8 4.5-1.8 6.3-0.1l3.6 3.6c3.3-2 6.9-3.4 10.9-3.9l0.5-5c0.3-2.4 2.4-4.2 4.9-3.9l4.4 0.4c2.4 0.3 4.2 2.4 4 4.9l-0.6 5c3.7 1.3 7.1 3.4 9.9 6.1l4.2-2.7c2-1.3 4.8-0.7 6.1 1.3l2.4 3.8c1.3 2 0.7 4.8-1.3 6.1l-4.3 2.7q0.9 2.7 1.3 5.7 0.3 2.9 0 5.8l4.8 1.6c2.3 0.8 3.6 3.3 2.8 5.6l-1.4 4.2c-0.8 2.4-3.3 3.6-5.7 2.8l-4.8-1.6c-2.1 3.2-4.9 6-8.1 8.2l1.7 4.7c0.8 2.3-0.3 4.9-2.6 5.7l-4.2 1.5c-2.3 0.8-4.9-0.3-5.7-2.6l-1.8-4.9c-3.9 0.4-7.8-0.1-11.4-1.2l-2.6 4.3c-1.3 2.1-4 2.8-6.1 1.5l-3.8-2.3c-2.1-1.3-2.8-4.1-1.5-6.1l2.7-4.4c-2.7-2.8-4.8-6-6.2-9.7l-5 0.6c-2.4 0.3-4.6-1.4-4.9-3.9l-0.6-4.4c-0.3-2.4 1.4-4.6 3.9-4.9zm27.1 18.3c8.9 3.2 18.6-1.5 21.7-10.4 3.1-8.9-1.5-18.7-10.4-21.8-8.9-3.1-18.7 1.6-21.8 10.5-3.1 8.9 1.5 18.6 10.5 21.7z"/>
			</g>
		</g>
		<g id="&lt;Group&gt;">
			<g id="&lt;Group&gt;">
				<path id="&lt;Compound Path&gt;" fill-rule="evenodd" class="s23" d="m702.5 370.7l5.1-0.6c0.5-4 1.8-7.7 3.7-10.9l-3.6-3.6c-1.7-1.7-1.7-4.5 0-6.2l3.1-3.2c1.7-1.8 4.5-1.8 6.2-0.1l3.7 3.6c3.2-2 6.9-3.4 10.9-3.9l0.5-5c0.2-2.4 2.4-4.2 4.8-3.9l4.4 0.4c2.5 0.3 4.3 2.4 4 4.9l-0.5 5c3.7 1.3 7 3.4 9.8 6.1l4.2-2.7c2.1-1.3 4.8-0.7 6.1 1.3l2.4 3.8c1.4 2 0.8 4.8-1.3 6.1l-4.2 2.7q0.9 2.7 1.2 5.7 0.4 2.9 0.1 5.8l4.7 1.6c2.4 0.8 3.6 3.3 2.8 5.6l-1.4 4.2c-0.8 2.4-3.3 3.6-5.6 2.8l-4.9-1.6c-2.1 3.2-4.8 6-8.1 8.2l1.8 4.7c0.8 2.3-0.4 4.9-2.7 5.7l-4.2 1.5c-2.3 0.8-4.8-0.3-5.7-2.6l-1.7-4.9c-4 0.4-7.9-0.1-11.4-1.2l-2.7 4.3c-1.3 2.1-4 2.8-6.1 1.5l-3.8-2.3c-2.1-1.3-2.7-4.1-1.4-6.1l2.7-4.4c-2.7-2.8-4.8-6-6.2-9.7l-5 0.6c-2.5 0.3-4.7-1.4-5-3.9l-0.5-4.4c-0.3-2.4 1.4-4.6 3.8-4.9zm27.1 18.3c8.9 3.2 18.6-1.5 21.8-10.4 3.1-8.9-1.6-18.7-10.5-21.8-8.9-3.1-18.6 1.6-21.8 10.5-3.1 8.9 1.6 18.6 10.5 21.7z"/>
			</g>
		</g>
		<g id="&lt;Group&gt;">
			<g id="&lt;Group&gt;">
				<path id="&lt;Compound Path&gt;" fill-rule="evenodd" class="s23" d="m85.7 248.3l4-0.5c0.4-3.1 1.4-6 3-8.6l-2.8-2.8c-1.4-1.4-1.5-3.6-0.1-5l2.5-2.5c1.3-1.4 3.5-1.4 4.9-0.1l2.9 2.9c2.5-1.6 5.5-2.7 8.6-3.1l0.4-4c0.2-1.9 1.9-3.3 3.9-3.1l3.5 0.4c1.9 0.2 3.3 1.9 3.1 3.8l-0.4 4c2.9 1.1 5.5 2.7 7.8 4.8l3.3-2.1c1.6-1.1 3.8-0.6 4.8 1l1.9 3c1.1 1.6 0.6 3.8-1 4.9l-3.4 2.1q0.7 2.2 1 4.5 0.3 2.3 0.1 4.6l3.7 1.3c1.9 0.6 2.9 2.6 2.2 4.4l-1.1 3.4c-0.6 1.8-2.6 2.8-4.4 2.2l-3.9-1.3c-1.6 2.5-3.8 4.7-6.4 6.4l1.4 3.8c0.6 1.8-0.3 3.8-2.1 4.5l-3.3 1.2c-1.9 0.6-3.9-0.3-4.5-2.1l-1.4-3.8c-3.2 0.3-6.2-0.1-9.1-1l-2.1 3.4c-1 1.7-3.1 2.2-4.8 1.2l-3-1.9c-1.6-1-2.2-3.1-1.2-4.8l2.2-3.5c-2.1-2.1-3.8-4.7-4.9-7.6l-4 0.4c-1.9 0.3-3.7-1.1-3.9-3l-0.4-3.5c-0.3-1.9 1.1-3.7 3-3.9zm22.9 10.4c4.8 1.7 10-0.8 11.7-5.6 1.6-4.8-0.9-10-5.6-11.7-4.8-1.7-10 0.9-11.7 5.6-1.7 4.8 0.8 10 5.6 11.7z"/>
			</g>
		</g>
		<g id="&lt;Group&gt;">
			<g id="&lt;Group&gt;">
				<path id="&lt;Compound Path&gt;" fill-rule="evenodd" class="s23" d="m684.9 310.4l4-0.5c0.4-3.1 1.4-6 3-8.6l-2.9-2.8c-1.4-1.3-1.4-3.5 0-4.9l2.4-2.5c1.4-1.4 3.6-1.5 5-0.1l2.9 2.8c2.5-1.6 5.4-2.6 8.6-3.1l0.4-3.9c0.2-1.9 1.9-3.3 3.8-3.1l3.5 0.3c2 0.2 3.4 1.9 3.2 3.9l-0.4 4c2.9 1 5.5 2.7 7.7 4.8l3.4-2.2c1.6-1 3.8-0.5 4.8 1.1l1.9 3c1.1 1.6 0.6 3.8-1 4.8l-3.4 2.2q0.7 2.1 1 4.4 0.3 2.4 0 4.7l3.8 1.2c1.8 0.6 2.8 2.6 2.2 4.5l-1.1 3.3c-0.6 1.8-2.6 2.8-4.5 2.2l-3.8-1.3c-1.7 2.6-3.8 4.8-6.4 6.5l1.3 3.8c0.7 1.8-0.2 3.8-2.1 4.4l-3.3 1.2c-1.8 0.7-3.8-0.2-4.5-2.1l-1.4-3.8c-3.1 0.3-6.2 0-9-1l-2.1 3.5c-1 1.6-3.2 2.1-4.8 1.1l-3-1.8c-1.7-1-2.2-3.2-1.2-4.8l2.2-3.5c-2.2-2.2-3.8-4.8-4.9-7.7l-4 0.5c-1.9 0.2-3.7-1.1-3.9-3.1l-0.5-3.4c-0.2-2 1.2-3.7 3.1-4zm22.9 10.4c4.7 1.7 10-0.8 11.6-5.6 1.7-4.7-0.8-10-5.6-11.6-4.7-1.7-10 0.8-11.6 5.6-1.7 4.8 0.8 10 5.6 11.6z"/>
			</g>
		</g>
		<g id="&lt;Group&gt;">
			<g id="&lt;Group&gt;">
				<path id="&lt;Compound Path&gt;" fill-rule="evenodd" class="s23" d="m536.9 570.5l4-0.5c0.4-3.1 1.4-6 3-8.6l-2.9-2.8c-1.4-1.4-1.4-3.6 0-5l2.4-2.5c1.4-1.4 3.6-1.4 5-0.1l2.9 2.9c2.5-1.6 5.4-2.7 8.6-3.1l0.4-4c0.2-1.9 1.9-3.3 3.8-3.1l3.5 0.4c2 0.2 3.4 1.9 3.2 3.8l-0.4 4c2.9 1.1 5.5 2.7 7.7 4.8l3.4-2.1c1.6-1.1 3.8-0.6 4.8 1l1.9 3c1.1 1.6 0.6 3.8-1 4.8l-3.4 2.2q0.7 2.2 1 4.5 0.3 2.3 0 4.6l3.8 1.3c1.8 0.6 2.8 2.6 2.2 4.4l-1.1 3.4c-0.6 1.8-2.6 2.8-4.5 2.2l-3.8-1.3c-1.7 2.5-3.8 4.7-6.4 6.4l1.3 3.8c0.7 1.8-0.2 3.8-2.1 4.5l-3.3 1.2c-1.8 0.6-3.8-0.3-4.5-2.1l-1.4-3.9c-3.1 0.4-6.2 0-9-0.9l-2.1 3.4c-1 1.7-3.2 2.2-4.8 1.2l-3-1.9c-1.7-1-2.2-3.1-1.2-4.8l2.2-3.5c-2.2-2.1-3.8-4.7-4.9-7.6l-4 0.4c-1.9 0.3-3.7-1.1-3.9-3l-0.5-3.5c-0.2-1.9 1.2-3.7 3.1-3.9zm22.9 10.4c4.7 1.7 10-0.8 11.6-5.6 1.7-4.8-0.8-10-5.6-11.7-4.7-1.7-10 0.9-11.6 5.6-1.7 4.8 0.8 10 5.6 11.7z"/>
			</g>
		</g>
		<path id="&lt;Path&gt;" class="s4" d="m232 709.4h54.7"/>
		<path id="&lt;Path&gt;" class="s4" d="m262.5 690.1h24.2"/>
		<path id="&lt;Path&gt;" class="s4" d="m286.7 608.4h24.1"/>
		<path id="&lt;Path&gt;" class="s4" d="m255.5 608.4h13.6"/>
		<path id="&lt;Path&gt;" class="s4" d="m269.1 624.4h19.6"/>
		<path id="&lt;Path&gt;" class="s4" d="m77.5 511.7h47.2"/>
		<path id="&lt;Path&gt;" class="s4" d="m83 527.7h19.5"/>
		<path id="&lt;Path&gt;" class="s4" d="m275.2 302.8h47.1"/>
		<path id="&lt;Path&gt;" class="s4" d="m345.5 302.8h20.5"/>
		<path id="&lt;Path&gt;" class="s4" d="m504.4 240h47.2"/>
		<path id="&lt;Path&gt;" class="s4" d="m504.4 263.1h20.5"/>
		<path id="&lt;Path&gt;" class="s4" d="m545.4 276.9h20.5"/>
		<path id="&lt;Path&gt;" class="s4" d="m314.2 337.4h20.5"/>
		<path id="&lt;Path&gt;" class="s4" d="m556.4 621.8h24.2"/>
		<path id="&lt;Path&gt;" class="s4" d="m525.2 621.8h13.7"/>
		<path id="&lt;Path&gt;" class="s4" d="m568.5 637.7h48.5"/>
		<path id="&lt;Path&gt;" class="s4" d="m565.9 708.3h24.2"/>
		<path id="&lt;Path&gt;" class="s4" d="m534.7 708.3h13.7"/>
		<path id="&lt;Path&gt;" class="s4" d="m519.3 724.3h19.6"/>
	</g>
</svg>