<svg width="139" height="139" viewBox="0 0 139 139" fill="none" xmlns="http://www.w3.org/2000/svg">
<path d="M69.3265 0C31.0292 0 0 31.0292 0 69.3265C0 107.624 31.0292 138.653 69.3265 138.653C107.624 138.653 138.653 107.624 138.653 69.3265C138.653 31.0292 107.624 0 69.3265 0ZM69.3265 26.8361C82.9122 26.8361 93.9262 37.85 93.9262 51.4358C93.9262 65.0215 82.9122 76.0355 69.3265 76.0355C55.7407 76.0355 44.7268 65.0215 44.7268 51.4358C44.7268 37.85 55.7407 26.8361 69.3265 26.8361ZM69.3265 122.999C52.9173 122.999 38.2134 115.563 28.3735 103.934C33.6289 94.038 43.9161 87.2172 55.9084 87.2172C56.5793 87.2172 57.2502 87.329 57.8932 87.5247C61.5272 88.6987 65.329 89.4535 69.3265 89.4535C73.3239 89.4535 77.1536 88.6987 80.7597 87.5247C81.4027 87.329 82.0736 87.2172 82.7445 87.2172C94.7369 87.2172 105.024 94.038 110.279 103.934C100.44 115.563 85.7356 122.999 69.3265 122.999Z" fill="currentColor"/>
</svg>
