<svg width="173" height="196" viewBox="0 0 173 196" fill="none" xmlns="http://www.w3.org/2000/svg">
<path d="M168.738 138.605C161.351 130.668 147.53 118.728 147.53 79.616C147.53 49.9095 126.701 26.129 98.6158 20.2948V12.3272C98.6158 5.57152 93.1409 0.0928345 86.3891 0.0928345C79.6373 0.0928345 74.1624 5.57152 74.1624 12.3272V20.2948C46.077 26.129 25.2481 49.9095 25.2481 79.616C25.2481 118.728 11.4271 130.668 4.0406 138.605C1.74666 141.071 0.729683 144.018 0.748799 146.905C0.790855 153.175 5.71135 159.139 13.0214 159.139H159.757C167.067 159.139 171.991 153.175 172.029 146.905C172.049 144.018 171.032 141.067 168.738 138.605ZM26.5671 140.788C34.68 130.094 43.5498 112.37 43.5919 79.8377C43.5919 79.7613 43.569 79.6925 43.569 79.616C43.569 55.9655 62.7386 36.7958 86.3891 36.7958C110.04 36.7958 129.209 55.9655 129.209 79.616C129.209 79.6925 129.186 79.7613 129.186 79.8377C129.228 112.373 138.098 130.098 146.211 140.788H26.5671ZM86.3891 195.842C99.8928 195.842 110.846 184.889 110.846 171.373H61.9319C61.9319 184.889 72.8855 195.842 86.3891 195.842Z" fill="currentColor"/>
</svg>
