<svg height="24" viewBox="0 0 24 24" width="24" xmlns="http://www.w3.org/2000/svg"><path d="m18.2513521 2.49820514c1.7330447 0 3.1492992 1.35632115 3.2449113 3.06546955l.0051449.18442692-.0006006 12.00382129c-.0002089 1.794829-1.4552184 3.2499127-3.2501035 3.2499127h-12.00064796c-1.73304473 0-3.14929927-1.3563211-3.2449113-3.0654695l-.00514494-.184427.00060063-12.00382126c.00020892-1.79482894 1.45521834-3.2499127 3.25004729-3.2499127zm-6.7513521 7-7 .001.00010353 8.25266156.0071721.1607269c.0811109.8911944.83037756 1.589242 1.74272437 1.589242l5.25-.0006305zm8.5 5.99999996-7 .001v4.002l5.2506479.0006305c.966514 0 1.7500473-.7835734 1.7501598-1.750031zm-1.7485917-11.49999996-5.2514083-.001v10.00199996l7-.001.0013048-8.25003102-.0071721-.16072693c-.0811109-.89119437-.8303776-1.58924201-1.7427244-1.58924201zm-6.7514083-.001-5.24926772.001-.14350156.00581152c-.89937904.07306844-1.60652322.82608473-1.60663009 1.74421954l-.00060063 2.25096894 7-.001z" fill="currentColor"/></svg>