<svg fill="none" height="20" viewBox="0 0 20 20" width="20" xmlns="http://www.w3.org/2000/svg"><g fill="#212121"><path d="m3 5c0-1.10457.89543-2 2-2h1v3.5c0 .82843.67157 1.5 1.5 1.5h4c.8284 0 1.5-.67157 1.5-1.5v-3.5h.3787c.5304 0 1.0391.21071 1.4142.58579l1.6213 1.62132c.3751.37507.5858.88378.5858 1.41421v8.37868c0 1.1046-.8954 2-2 2v-5.5c0-.8284-.6716-1.5-1.5-1.5h-7c-.82843 0-1.5.6716-1.5 1.5v5.5c-1.10457 0-2-.8954-2-2z"/><path d="m12 3h-5v3.5c0 .27614.22386.5.5.5h4c.2761 0 .5-.22386.5-.5z"/><path d="m14 11.5v5.5h-8v-5.5c0-.2761.22386-.5.5-.5h7c.2761 0 .5.2239.5.5z"/></g></svg>