<svg width="135" height="124" viewBox="0 0 135 124" fill="none" xmlns="http://www.w3.org/2000/svg">
<path d="M64.6406 69.9931V112.813H11.1152V69.9931H64.6406ZM64.6406 59.288H11.1152C8.27607 59.288 5.55319 60.4159 3.5456 62.4235C1.53801 64.4311 0.410156 67.1539 0.410156 69.9931V112.813C0.410156 115.653 1.53801 118.375 3.5456 120.383C5.55319 122.391 8.27607 123.518 11.1152 123.518H64.6406C67.4798 123.518 70.2026 122.391 72.2102 120.383C74.2178 118.375 75.3457 115.653 75.3457 112.813V69.9931C75.3457 67.1539 74.2178 64.4311 72.2102 62.4235C70.2026 60.4159 67.4798 59.288 64.6406 59.288Z" fill="currentColor"/>
<path d="M123.519 11.1152V37.8779H69.9932V11.1152H123.519ZM123.519 0.410156H69.9932C67.154 0.410156 64.4311 1.53801 62.4235 3.5456C60.4159 5.55319 59.2881 8.27607 59.2881 11.1152V37.8779C59.2881 40.7171 60.4159 43.44 62.4235 45.4475C64.4311 47.4551 67.154 48.583 69.9932 48.583H123.519C126.358 48.583 129.081 47.4551 131.088 45.4475C133.096 43.44 134.224 40.7171 134.224 37.8779V11.1152C134.224 8.27607 133.096 5.55319 131.088 3.5456C129.081 1.53801 126.358 0.410156 123.519 0.410156Z" fill="currentColor"/>
<path d="M123.519 69.9931V96.7558H96.7559V69.9931H123.519ZM123.519 59.288H96.7559C93.9167 59.288 91.1938 60.4159 89.1862 62.4235C87.1786 64.4311 86.0508 67.1539 86.0508 69.9931V96.7558C86.0508 99.5949 87.1786 102.318 89.1862 104.325C91.1938 106.333 93.9167 107.461 96.7559 107.461H123.519C126.358 107.461 129.081 106.333 131.088 104.325C133.096 102.318 134.224 99.5949 134.224 96.7558V69.9931C134.224 67.1539 133.096 64.4311 131.088 62.4235C129.081 60.4159 126.358 59.288 123.519 59.288Z" fill="currentColor"/>
<path d="M37.8779 11.1152V37.8779H11.1152V11.1152H37.8779ZM37.8779 0.410156H11.1152C8.27607 0.410156 5.55319 1.53801 3.5456 3.5456C1.53801 5.55319 0.410156 8.27607 0.410156 11.1152V37.8779C0.410156 40.7171 1.53801 43.44 3.5456 45.4475C5.55319 47.4551 8.27607 48.583 11.1152 48.583H37.8779C40.7171 48.583 43.44 47.4551 45.4475 45.4475C47.4551 43.44 48.583 40.7171 48.583 37.8779V11.1152C48.583 8.27607 47.4551 5.55319 45.4475 3.5456C43.44 1.53801 40.7171 0.410156 37.8779 0.410156Z" fill="currentColor"/>
</svg>
